<?xml version="1.0" encoding="utf-8"?>
<!-- Generator: Adobe Illustrator 17.0.0, SVG Export Plug-In . SVG Version: 6.00 Build 0)  -->
<!DOCTYPE svg PUBLIC "-//W3C//DTD SVG 1.1//EN" "http://www.w3.org/Graphics/SVG/1.1/DTD/svg11.dtd">
<svg version="1.1" xmlns="http://www.w3.org/2000/svg" xmlns:xlink="http://www.w3.org/1999/xlink" x="0px" y="0px" width="1920px"
	 height="1080px" viewBox="0 0 1920 1080" enable-background="new 0 0 1920 1080" xml:space="preserve">
<g id="bg_x5F__x5F_" display="none">
	
		<rect x="-29.268" y="-27.122" display="inline" fill="#D5584D" stroke="#000000" stroke-miterlimit="10" width="1965.854" height="1123.171"/>
</g>
<g id="shape_x5F_botto">
	<path id="shape_x5F_bottom" opacity="0.5" fill="#FFFFFF" d="M1700.781,278.123l-38.048,115.06c0,0,333.157,718.26-680.793,604.266
		s334.483,52.497,334.483,52.497l370.481-25.499l124.494-185.991V540L1700.781,278.123"/>
</g>
<g id="shape_x5F_top">
	<path id="shape_x5F_top_1_" opacity="0.5" fill="#FFFFFF" d="M-21.727,188.399c0,0,147.32,2.725,200.872,51.31
		s146.99,138.614,351.318,94.772s526.474-122.994,356.982-53.997S524.463,491.973,524.463,491.973l-365.982-43.498L-21.727,274.484
		V188.399"/>
</g>
<g id="shape_x5F__x5F_main">
	<path id="shape_x5F_main" fill="#FFFFFF" d="M-105.505,206.988c0,0,119.994-46.498,232.488,0S281.475,430.477,539.462,350.98
		s775.461-266.987,725.964,65.997c-49.498,332.983,80.996,559.472,251.987,521.974s235.488-199.49,206.99-323.984
		c-28.499-124.494-101.995-247.488-37.498-322.484s173.991-73.496,272.986-68.997s6,908.955,6,908.955l-2026.399-36.393
		L-105.505,206.988z"/>
	<g>
	</g>
	<g>
	</g>
	<g>
	</g>
	<g>
	</g>
	<g>
	</g>
	<g>
	</g>
</g>
</svg>
