<?xml version="1.0" encoding="utf-8"?>
<!-- Generator: Adobe Illustrator 17.0.0, SVG Export Plug-In . SVG Version: 6.00 Build 0)  -->
<!DOCTYPE svg PUBLIC "-//W3C//DTD SVG 1.1//EN" "http://www.w3.org/Graphics/SVG/1.1/DTD/svg11.dtd">
<svg version="1.1" xmlns="http://www.w3.org/2000/svg" xmlns:xlink="http://www.w3.org/1999/xlink" x="0px" y="0px" width="1920px"
	 height="633px" viewBox="0 0 1920 633" enable-background="new 0 0 1920 633" xml:space="preserve">
<g id="_x5F_">
	
		<image overflow="visible" width="1920" height="1053" xlink:href="shape-2.png"  transform="matrix(0.9999 0 0 0.9999 0.12 -419.8683)">
	</image>
</g>
<g id="shape-1" display="none">
	<path display="inline" fill="#FFFFFF" d="M0.12,383.195c0,0,240.124,249.805,559.636,249.805s628.049-210.78,845.122-329.073
		s288.54-178.049,515.002-240.244s94.754,386.585,94.754,386.585l-65.854,245.122L650,708.805L0.12,724.659l-96.462-160.976"/>
</g>
<g id="shape-4">
	<path opacity="0.4" fill="#FFFFFF" d="M-103,174c0,0,288,454,590,454S1799-28,2011,28s232.723,662,232.723,662S403,1170,373,1160
		s-566-302-566-302"/>
</g>
<g id="shape-3">
	<path fill="#FFFFFF" d="M-85,336.764c0,0,162.186,315.25,668.093,288.625S1557,74.764,1987,278.764s194,164,176,290
		s-1848,394-1872,384s-538-235.341-538-235.341"/>
	<g>
	</g>
	<g>
	</g>
	<g>
	</g>
	<g>
	</g>
	<g>
	</g>
	<g>
	</g>
</g>
</svg>
